<svg xmlns="http://www.w3.org/2000/svg" width="660" height="1100" viewBox="0 0 660 1100"><rect width="660" height="1100" fill="#12151a"/><g transform="translate(23.0,10) scale(1.6)" style="color:#E8B23A"><line x1="4" y1="20" x2="12.5" y2="20" stroke="currentColor" stroke-width="2.2"/><circle cx="20" cy="20" r="7.5" fill="none" stroke="currentColor" stroke-width="2.2"/><line x1="27.5" y1="20" x2="36" y2="20" stroke="currentColor" stroke-width="2.2"/></g><text x="55.0" y="94" font-size="11" fill="#EDEBE4" text-anchor="middle" font-family="sans-serif">照明 天井付</text><text x="55.0" y="106" font-size="8" fill="#9AA0AA" text-anchor="middle" font-family="sans-serif">照明器具</text><g transform="translate(133.0,10) scale(1.6)" style="color:#E8B23A"><rect x="6" y="15" width="28" height="10" fill="none" stroke="currentColor" stroke-width="2.2"/></g><text x="165.0" y="94" font-size="11" fill="#EDEBE4" text-anchor="middle" font-family="sans-serif">照明 天井付(BOXなし)</text><text x="165.0" y="106" font-size="8" fill="#9AA0AA" text-anchor="middle" font-family="sans-serif">照明器具</text><g transform="translate(243.0,10) scale(1.6)" style="color:#E8B23A"><rect x="8" y="8" width="24" height="24" fill="none" stroke="currentColor" stroke-width="2"/><circle cx="20" cy="20" r="6.5" fill="none" stroke="currentColor" stroke-width="2.2"/></g><text x="275.0" y="94" font-size="11" fill="#EDEBE4" text-anchor="middle" font-family="sans-serif">照明 角形天井付</text><text x="275.0" y="106" font-size="8" fill="#9AA0AA" text-anchor="middle" font-family="sans-serif">照明器具</text><g transform="translate(353.0,10) scale(1.6)" style="color:#E8B23A"><circle cx="20" cy="18" r="8" fill="none" stroke="currentColor" stroke-width="2.2"/><line x1="9" y1="29" x2="31" y2="29" stroke="currentColor" stroke-width="2.4"/></g><text x="385.0" y="94" font-size="11" fill="#EDEBE4" text-anchor="middle" font-family="sans-serif">照明 壁付</text><text x="385.0" y="106" font-size="8" fill="#9AA0AA" text-anchor="middle" font-family="sans-serif">照明器具</text><g transform="translate(463.0,10) scale(1.6)" style="color:#E8B23A"><rect x="6" y="15" width="28" height="10" fill="none" stroke="currentColor" stroke-width="2.2"/><line x1="20" y1="15" x2="20" y2="25" stroke="currentColor" stroke-width="1.3"/></g><text x="495.0" y="94" font-size="11" fill="#EDEBE4" text-anchor="middle" font-family="sans-serif">蛍光/LED灯</text><text x="495.0" y="106" font-size="8" fill="#9AA0AA" text-anchor="middle" font-family="sans-serif">照明器具</text><g transform="translate(573.0,10) scale(1.6)" style="color:#E8B23A"><circle cx="20" cy="20" r="8.5" fill="none" stroke="currentColor" stroke-width="2.2"/><path d="M14.5 14.5 L25.5 25.5 M25.5 14.5 L14.5 25.5" stroke="currentColor" stroke-width="1.8"/></g><text x="605.0" y="94" font-size="11" fill="#EDEBE4" text-anchor="middle" font-family="sans-serif">ダウンライト(DL)</text><text x="605.0" y="106" font-size="8" fill="#9AA0AA" text-anchor="middle" font-family="sans-serif">照明器具</text><g transform="translate(23.0,120) scale(1.6)" style="color:#D9522B"><line x1="4" y1="20" x2="12.5" y2="20" stroke="currentColor" stroke-width="2.2"/><circle cx="20" cy="20" r="7.5" fill="currentColor"/><line x1="27.5" y1="20" x2="36" y2="20" stroke="currentColor" stroke-width="2.2"/></g><text x="55.0" y="204" font-size="11" fill="#EDEBE4" text-anchor="middle" font-family="sans-serif">非常用照明(天井)</text><text x="55.0" y="216" font-size="8" fill="#9AA0AA" text-anchor="middle" font-family="sans-serif">照明器具</text><g transform="translate(133.0,120) scale(1.6)" style="color:#D9522B"><circle cx="20" cy="20" r="8" fill="currentColor"/></g><text x="165.0" y="204" font-size="11" fill="#EDEBE4" text-anchor="middle" font-family="sans-serif">非常用照明(●)</text><text x="165.0" y="216" font-size="8" fill="#9AA0AA" text-anchor="middle" font-family="sans-serif">照明器具</text><g transform="translate(243.0,120) scale(1.6)" style="color:#1F9A60"><circle cx="20" cy="20" r="8.5" fill="none" stroke="currentColor" stroke-width="2.2"/><path d="M14 14 L26 26 M26 14 L14 26" stroke="currentColor" stroke-width="3.4"/></g><text x="275.0" y="204" font-size="11" fill="#EDEBE4" text-anchor="middle" font-family="sans-serif">避難口/通路誘導灯</text><text x="275.0" y="216" font-size="8" fill="#9AA0AA" text-anchor="middle" font-family="sans-serif">照明器具</text><g transform="translate(353.0,120) scale(1.6)" style="color:#8B5CF6"><circle cx="20" cy="20" r="6.5" fill="currentColor"/></g><text x="385.0" y="204" font-size="11" fill="#EDEBE4" text-anchor="middle" font-family="sans-serif">タンブラSW</text><text x="385.0" y="216" font-size="8" fill="#9AA0AA" text-anchor="middle" font-family="sans-serif">点滅器</text><g transform="translate(463.0,120) scale(1.6)" style="color:#8B5CF6"><circle cx="20" cy="20" r="6.5" fill="currentColor"/><text x="30" y="14" font-size="7.5" text-anchor="middle" fill="currentColor" font-family="sans-serif" font-weight="700">2P</text></g><text x="495.0" y="204" font-size="11" fill="#EDEBE4" text-anchor="middle" font-family="sans-serif">2極(2P)</text><text x="495.0" y="216" font-size="8" fill="#9AA0AA" text-anchor="middle" font-family="sans-serif">点滅器</text><g transform="translate(573.0,120) scale(1.6)" style="color:#8B5CF6"><circle cx="20" cy="20" r="6.5" fill="currentColor"/><text x="30" y="14" font-size="9" text-anchor="middle" fill="currentColor" font-family="sans-serif" font-weight="700">3</text></g><text x="605.0" y="204" font-size="11" fill="#EDEBE4" text-anchor="middle" font-family="sans-serif">3路(3)</text><text x="605.0" y="216" font-size="8" fill="#9AA0AA" text-anchor="middle" font-family="sans-serif">点滅器</text><g transform="translate(23.0,230) scale(1.6)" style="color:#8B5CF6"><circle cx="20" cy="20" r="6.5" fill="currentColor"/><text x="30" y="14" font-size="9" text-anchor="middle" fill="currentColor" font-family="sans-serif" font-weight="700">4</text></g><text x="55.0" y="314" font-size="11" fill="#EDEBE4" text-anchor="middle" font-family="sans-serif">4路(4)</text><text x="55.0" y="326" font-size="8" fill="#9AA0AA" text-anchor="middle" font-family="sans-serif">点滅器</text><g transform="translate(133.0,230) scale(1.6)" style="color:#8B5CF6"><circle cx="20" cy="20" r="6.5" fill="currentColor"/><text x="30" y="14" font-size="8.5" text-anchor="middle" fill="currentColor" font-family="sans-serif" font-weight="700">H</text></g><text x="165.0" y="314" font-size="11" fill="#EDEBE4" text-anchor="middle" font-family="sans-serif">位置表示灯付(H)</text><text x="165.0" y="326" font-size="8" fill="#9AA0AA" text-anchor="middle" font-family="sans-serif">点滅器</text><g transform="translate(243.0,230) scale(1.6)" style="color:#8B5CF6"><circle cx="20" cy="20" r="6.5" fill="currentColor"/><text x="30" y="14" font-size="8.5" text-anchor="middle" fill="currentColor" font-family="sans-serif" font-weight="700">L</text></g><text x="275.0" y="314" font-size="11" fill="#EDEBE4" text-anchor="middle" font-family="sans-serif">確認表示灯付(L)</text><text x="275.0" y="326" font-size="8" fill="#9AA0AA" text-anchor="middle" font-family="sans-serif">点滅器</text><g transform="translate(353.0,230) scale(1.6)" style="color:#8B5CF6"><circle cx="20" cy="20" r="6.5" fill="currentColor"/><text x="30" y="13.5" font-size="6" text-anchor="middle" fill="currentColor" font-family="sans-serif" font-weight="700">WP</text></g><text x="385.0" y="314" font-size="11" fill="#EDEBE4" text-anchor="middle" font-family="sans-serif">防雨形(WP)</text><text x="385.0" y="326" font-size="8" fill="#9AA0AA" text-anchor="middle" font-family="sans-serif">点滅器</text><g transform="translate(463.0,230) scale(1.6)" style="color:#8B5CF6"><circle cx="20" cy="22" r="6.5" fill="currentColor"/><path d="M20 22 L29 9 M29 9 l-1.5 4.5 M29 9 l3.5 2" stroke="currentColor" stroke-width="2" fill="none"/></g><text x="495.0" y="314" font-size="11" fill="#EDEBE4" text-anchor="middle" font-family="sans-serif">調光器</text><text x="495.0" y="326" font-size="8" fill="#9AA0AA" text-anchor="middle" font-family="sans-serif">点滅器</text><g transform="translate(573.0,230) scale(1.6)" style="color:#8B5CF6"><circle cx="20" cy="20" r="6.5" fill="currentColor"/><text x="30" y="14" font-size="8.5" text-anchor="middle" fill="currentColor" font-family="sans-serif" font-weight="700">D</text></g><text x="605.0" y="314" font-size="11" fill="#EDEBE4" text-anchor="middle" font-family="sans-serif">遅延SW(D)</text><text x="605.0" y="326" font-size="8" fill="#9AA0AA" text-anchor="middle" font-family="sans-serif">点滅器</text><g transform="translate(23.0,340) scale(1.6)" style="color:#8B5CF6"><circle cx="20" cy="20" r="6.5" fill="currentColor"/><text x="30" y="14" font-size="8.5" text-anchor="middle" fill="currentColor" font-family="sans-serif" font-weight="700">T</text></g><text x="55.0" y="424" font-size="11" fill="#EDEBE4" text-anchor="middle" font-family="sans-serif">タイマSW(T)</text><text x="55.0" y="436" font-size="8" fill="#9AA0AA" text-anchor="middle" font-family="sans-serif">点滅器</text><g transform="translate(133.0,340) scale(1.6)" style="color:#8B5CF6"><path d="M20 12 L28 20 L20 28 L12 20 Z" fill="currentColor"/></g><text x="165.0" y="424" font-size="11" fill="#EDEBE4" text-anchor="middle" font-family="sans-serif">ワイド形</text><text x="165.0" y="436" font-size="8" fill="#9AA0AA" text-anchor="middle" font-family="sans-serif">点滅器</text><g transform="translate(243.0,340) scale(1.6)" style="color:#8B5CF6"><circle cx="20" cy="20" r="6.5" fill="currentColor"/><text x="30" y="14" font-size="8.5" text-anchor="middle" fill="currentColor" font-family="sans-serif" font-weight="700">A</text></g><text x="275.0" y="424" font-size="11" fill="#EDEBE4" text-anchor="middle" font-family="sans-serif">自動点滅器(A)</text><text x="275.0" y="436" font-size="8" fill="#9AA0AA" text-anchor="middle" font-family="sans-serif">点滅器</text><g transform="translate(353.0,340) scale(1.6)" style="color:#8B5CF6"><circle cx="20" cy="20" r="6.5" fill="currentColor"/><text x="30" y="14" font-size="8.5" text-anchor="middle" fill="currentColor" font-family="sans-serif" font-weight="700">R</text></g><text x="385.0" y="424" font-size="11" fill="#EDEBE4" text-anchor="middle" font-family="sans-serif">リモコンSW(R)</text><text x="385.0" y="436" font-size="8" fill="#9AA0AA" text-anchor="middle" font-family="sans-serif">点滅器</text><g transform="translate(463.0,340) scale(1.6)" style="color:#8B5CF6"><circle cx="20" cy="20" r="6.5" fill="currentColor"/><text x="30" y="13.5" font-size="5.5" text-anchor="middle" fill="currentColor" font-family="sans-serif" font-weight="700">RAS</text></g><text x="495.0" y="424" font-size="11" fill="#EDEBE4" text-anchor="middle" font-family="sans-serif">熱線式自動SW</text><text x="495.0" y="436" font-size="8" fill="#9AA0AA" text-anchor="middle" font-family="sans-serif">点滅器</text><g transform="translate(573.0,340) scale(1.6)" style="color:#3F72C4"><circle cx="20" cy="20" r="8" fill="none" stroke="currentColor" stroke-width="2.2"/><path d="M12 20 A8 8 0 0 0 28 20 Z" fill="currentColor"/></g><text x="605.0" y="424" font-size="11" fill="#EDEBE4" text-anchor="middle" font-family="sans-serif">コンセント</text><text x="605.0" y="436" font-size="8" fill="#9AA0AA" text-anchor="middle" font-family="sans-serif">コンセント</text><g transform="translate(23.0,450) scale(1.6)" style="color:#3F72C4"><circle cx="20" cy="20" r="8" fill="none" stroke="currentColor" stroke-width="2.2"/><path d="M12 20 A8 8 0 0 0 28 20 Z" fill="currentColor"/><text x="20" y="14.5" font-size="6.5" text-anchor="middle" fill="currentColor" font-family="sans-serif" font-weight="700">20A</text></g><text x="55.0" y="534" font-size="11" fill="#EDEBE4" text-anchor="middle" font-family="sans-serif">20A</text><text x="55.0" y="546" font-size="8" fill="#9AA0AA" text-anchor="middle" font-family="sans-serif">コンセント</text><g transform="translate(133.0,450) scale(1.6)" style="color:#3F72C4"><circle cx="20" cy="20" r="8" fill="none" stroke="currentColor" stroke-width="2.2"/><path d="M12 20 A8 8 0 0 0 28 20 Z" fill="currentColor"/><text x="20" y="14" font-size="5" text-anchor="middle" fill="currentColor" font-family="sans-serif" font-weight="700">250V</text></g><text x="165.0" y="534" font-size="11" fill="#EDEBE4" text-anchor="middle" font-family="sans-serif">200V(20A250V)</text><text x="165.0" y="546" font-size="8" fill="#9AA0AA" text-anchor="middle" font-family="sans-serif">コンセント</text><g transform="translate(243.0,450) scale(1.6)" style="color:#3F72C4"><circle cx="20" cy="20" r="8" fill="none" stroke="currentColor" stroke-width="2.2"/><path d="M12 20 A8 8 0 0 0 28 20 Z" fill="currentColor"/><text x="20" y="14.5" font-size="6.5" text-anchor="middle" fill="currentColor" font-family="sans-serif" font-weight="700">3P</text></g><text x="275.0" y="534" font-size="11" fill="#EDEBE4" text-anchor="middle" font-family="sans-serif">3P</text><text x="275.0" y="546" font-size="8" fill="#9AA0AA" text-anchor="middle" font-family="sans-serif">コンセント</text><g transform="translate(353.0,450) scale(1.6)" style="color:#3F72C4"><circle cx="20" cy="20" r="8" fill="none" stroke="currentColor" stroke-width="2.2"/><path d="M12 20 A8 8 0 0 0 28 20 Z" fill="currentColor"/><text x="20" y="14.5" font-size="6.5" text-anchor="middle" fill="currentColor" font-family="sans-serif" font-weight="700">LK</text></g><text x="385.0" y="534" font-size="11" fill="#EDEBE4" text-anchor="middle" font-family="sans-serif">抜止(LK)</text><text x="385.0" y="546" font-size="8" fill="#9AA0AA" text-anchor="middle" font-family="sans-serif">コンセント</text><g transform="translate(463.0,450) scale(1.6)" style="color:#3F72C4"><circle cx="20" cy="20" r="8" fill="none" stroke="currentColor" stroke-width="2.2"/><path d="M12 20 A8 8 0 0 0 28 20 Z" fill="currentColor"/><text x="20" y="14.5" font-size="7" text-anchor="middle" fill="currentColor" font-family="sans-serif" font-weight="700">T</text></g><text x="495.0" y="534" font-size="11" fill="#EDEBE4" text-anchor="middle" font-family="sans-serif">引掛形(T)</text><text x="495.0" y="546" font-size="8" fill="#9AA0AA" text-anchor="middle" font-family="sans-serif">コンセント</text><g transform="translate(573.0,450) scale(1.6)" style="color:#3F72C4"><circle cx="20" cy="20" r="8" fill="none" stroke="currentColor" stroke-width="2.2"/><path d="M12 20 A8 8 0 0 0 28 20 Z" fill="currentColor"/><text x="20" y="14.5" font-size="7" text-anchor="middle" fill="currentColor" font-family="sans-serif" font-weight="700">E</text></g><text x="605.0" y="534" font-size="11" fill="#EDEBE4" text-anchor="middle" font-family="sans-serif">接地極付(E)</text><text x="605.0" y="546" font-size="8" fill="#9AA0AA" text-anchor="middle" font-family="sans-serif">コンセント</text><g transform="translate(23.0,560) scale(1.6)" style="color:#3F72C4"><circle cx="20" cy="20" r="8" fill="none" stroke="currentColor" stroke-width="2.2"/><path d="M12 20 A8 8 0 0 0 28 20 Z" fill="currentColor"/><text x="20" y="14.5" font-size="6" text-anchor="middle" fill="currentColor" font-family="sans-serif" font-weight="700">ET</text></g><text x="55.0" y="644" font-size="11" fill="#EDEBE4" text-anchor="middle" font-family="sans-serif">接地端子付(ET)</text><text x="55.0" y="656" font-size="8" fill="#9AA0AA" text-anchor="middle" font-family="sans-serif">コンセント</text><g transform="translate(133.0,560) scale(1.6)" style="color:#3F72C4"><circle cx="20" cy="20" r="8" fill="none" stroke="currentColor" stroke-width="2.2"/><path d="M12 20 A8 8 0 0 0 28 20 Z" fill="currentColor"/><text x="20" y="14" font-size="5.5" text-anchor="middle" fill="currentColor" font-family="sans-serif" font-weight="700">WP</text></g><text x="165.0" y="644" font-size="11" fill="#EDEBE4" text-anchor="middle" font-family="sans-serif">防雨形(WP)</text><text x="165.0" y="656" font-size="8" fill="#9AA0AA" text-anchor="middle" font-family="sans-serif">コンセント</text><g transform="translate(243.0,560) scale(1.6)" style="color:#3F72C4"><circle cx="20" cy="20" r="8" fill="none" stroke="currentColor" stroke-width="2.2"/><path d="M12 20 A8 8 0 0 0 28 20 Z" fill="currentColor"/><text x="20" y="14" font-size="5.5" text-anchor="middle" fill="currentColor" font-family="sans-serif" font-weight="700">EX</text></g><text x="275.0" y="644" font-size="11" fill="#EDEBE4" text-anchor="middle" font-family="sans-serif">防爆形(EX)</text><text x="275.0" y="656" font-size="8" fill="#9AA0AA" text-anchor="middle" font-family="sans-serif">コンセント</text><g transform="translate(353.0,560) scale(1.6)" style="color:#3F72C4"><rect x="8" y="8" width="24" height="24" fill="none" stroke="currentColor" stroke-width="1.6"/><circle cx="20" cy="20" r="6.5" fill="none" stroke="currentColor" stroke-width="2.2"/><path d="M13.5 20 A6.5 6.5 0 0 0 26.5 20 Z" fill="currentColor"/></g><text x="385.0" y="644" font-size="11" fill="#EDEBE4" text-anchor="middle" font-family="sans-serif">床コンセント</text><text x="385.0" y="656" font-size="8" fill="#9AA0AA" text-anchor="middle" font-family="sans-serif">コンセント</text><g transform="translate(463.0,560) scale(1.6)" style="color:#3F72C4"><circle cx="20" cy="20" r="8" fill="none" stroke="currentColor" stroke-width="2.2"/><circle cx="20" cy="20" r="3" fill="currentColor"/></g><text x="495.0" y="644" font-size="11" fill="#EDEBE4" text-anchor="middle" font-family="sans-serif">天井コンセント</text><text x="495.0" y="656" font-size="8" fill="#9AA0AA" text-anchor="middle" font-family="sans-serif">コンセント</text><g transform="translate(573.0,560) scale(1.6)" style="color:#3F72C4"><circle cx="20" cy="20" r="8" fill="none" stroke="currentColor" stroke-width="2.2"/><path d="M12 20 A8 8 0 0 0 28 20 Z" fill="currentColor"/><text x="20" y="14.5" font-size="6.5" text-anchor="middle" fill="currentColor" font-family="sans-serif" font-weight="700">NC</text></g><text x="605.0" y="644" font-size="11" fill="#EDEBE4" text-anchor="middle" font-family="sans-serif">非常コンセント</text><text x="605.0" y="656" font-size="8" fill="#9AA0AA" text-anchor="middle" font-family="sans-serif">コンセント</text><g transform="translate(23.0,670) scale(1.6)" style="color:#3F72C4"><circle cx="20" cy="20" r="7.5" fill="none" stroke="currentColor" stroke-width="2.2"/><line x1="20" y1="15" x2="20" y2="22" stroke="currentColor" stroke-width="2"/><line x1="15.5" y1="22" x2="24.5" y2="22" stroke="currentColor" stroke-width="2"/><line x1="17" y1="25" x2="23" y2="25" stroke="currentColor" stroke-width="2"/><line x1="18.5" y1="27.5" x2="21.5" y2="27.5" stroke="currentColor" stroke-width="2"/></g><text x="55.0" y="754" font-size="11" fill="#EDEBE4" text-anchor="middle" font-family="sans-serif">接地端子(連用)</text><text x="55.0" y="766" font-size="8" fill="#9AA0AA" text-anchor="middle" font-family="sans-serif">コンセント</text><g transform="translate(133.0,670) scale(1.6)" style="color:#EDEBE4"><rect x="7" y="13" width="26" height="14" fill="none" stroke="currentColor" stroke-width="2.2"/><path d="M7 27 L33 13 L33 27 Z" fill="currentColor"/></g><text x="165.0" y="754" font-size="11" fill="#EDEBE4" text-anchor="middle" font-family="sans-serif">分電盤</text><text x="165.0" y="766" font-size="8" fill="#9AA0AA" text-anchor="middle" font-family="sans-serif">盤・機器</text><g transform="translate(243.0,670) scale(1.6)" style="color:#EDEBE4"><rect x="7" y="13" width="26" height="14" fill="currentColor"/></g><text x="275.0" y="754" font-size="11" fill="#EDEBE4" text-anchor="middle" font-family="sans-serif">配電盤</text><text x="275.0" y="766" font-size="8" fill="#9AA0AA" text-anchor="middle" font-family="sans-serif">盤・機器</text><g transform="translate(353.0,670) scale(1.6)" style="color:#EDEBE4"><rect x="7" y="13" width="26" height="14" fill="none" stroke="currentColor" stroke-width="2.2"/><text x="20" y="24.5" font-size="9" text-anchor="middle" fill="currentColor" font-family="sans-serif" font-weight="700">C</text></g><text x="385.0" y="754" font-size="11" fill="#EDEBE4" text-anchor="middle" font-family="sans-serif">制御盤</text><text x="385.0" y="766" font-size="8" fill="#9AA0AA" text-anchor="middle" font-family="sans-serif">盤・機器</text><g transform="translate(463.0,670) scale(1.6)" style="color:#26C6DA"><circle cx="20" cy="20" r="9.5" fill="none" stroke="currentColor" stroke-width="2.2"/><text x="20" y="24.5" font-size="11" text-anchor="middle" fill="currentColor" font-family="sans-serif" font-weight="700">M</text></g><text x="495.0" y="754" font-size="11" fill="#EDEBE4" text-anchor="middle" font-family="sans-serif">電動機(M)</text><text x="495.0" y="766" font-size="8" fill="#9AA0AA" text-anchor="middle" font-family="sans-serif">盤・機器</text><g transform="translate(573.0,670) scale(1.6)" style="color:#26C6DA"><circle cx="20" cy="20" r="9.5" fill="none" stroke="currentColor" stroke-width="2.2"/><path d="M13 13 L27 27 M27 13 L13 27" stroke="currentColor" stroke-width="1.8"/><circle cx="20" cy="20" r="2.4" fill="currentColor"/></g><text x="605.0" y="754" font-size="11" fill="#EDEBE4" text-anchor="middle" font-family="sans-serif">換気扇</text><text x="605.0" y="766" font-size="8" fill="#9AA0AA" text-anchor="middle" font-family="sans-serif">盤・機器</text><g transform="translate(23.0,780) scale(1.6)" style="color:#4ADE80"><circle cx="20" cy="20" r="9" fill="none" stroke="currentColor" stroke-width="2.2"/><path d="M13 24 L20 13 L27 24 Z" fill="currentColor"/></g><text x="55.0" y="864" font-size="11" fill="#EDEBE4" text-anchor="middle" font-family="sans-serif">情報用アウトレット</text><text x="55.0" y="876" font-size="8" fill="#9AA0AA" text-anchor="middle" font-family="sans-serif">情報・通信</text><g transform="translate(133.0,780) scale(1.6)" style="color:#4ADE80"><circle cx="20" cy="20" r="9" fill="none" stroke="currentColor" stroke-width="2.2"/><text x="20" y="24.5" font-size="11" text-anchor="middle" fill="currentColor" font-family="sans-serif" font-weight="700">T</text></g><text x="165.0" y="864" font-size="11" fill="#EDEBE4" text-anchor="middle" font-family="sans-serif">電話アウトレット</text><text x="165.0" y="876" font-size="8" fill="#9AA0AA" text-anchor="middle" font-family="sans-serif">情報・通信</text><g transform="translate(243.0,780) scale(1.6)" style="color:#4ADE80"><circle cx="20" cy="20" r="9" fill="none" stroke="currentColor" stroke-width="2.2"/><text x="20" y="24" font-size="9" text-anchor="middle" fill="currentColor" font-family="sans-serif" font-weight="700">TV</text></g><text x="275.0" y="864" font-size="11" fill="#EDEBE4" text-anchor="middle" font-family="sans-serif">テレビ端子</text><text x="275.0" y="876" font-size="8" fill="#9AA0AA" text-anchor="middle" font-family="sans-serif">情報・通信</text><g transform="translate(353.0,780) scale(1.6)" style="color:#4ADE80"><path d="M12 15 L19 15 L27 9 L27 31 L19 25 L12 25 Z" fill="none" stroke="currentColor" stroke-width="2.2" stroke-linejoin="round"/></g><text x="385.0" y="864" font-size="11" fill="#EDEBE4" text-anchor="middle" font-family="sans-serif">スピーカ</text><text x="385.0" y="876" font-size="8" fill="#9AA0AA" text-anchor="middle" font-family="sans-serif">情報・通信</text><g transform="translate(463.0,780) scale(1.6)" style="color:#F87171"><circle cx="20" cy="20" r="9.5" fill="none" stroke="currentColor" stroke-width="2.2"/><text x="20" y="24.5" font-size="10" text-anchor="middle" fill="currentColor" font-family="sans-serif" font-weight="700">S</text></g><text x="495.0" y="864" font-size="11" fill="#EDEBE4" text-anchor="middle" font-family="sans-serif">煙感知器(S)</text><text x="495.0" y="876" font-size="8" fill="#9AA0AA" text-anchor="middle" font-family="sans-serif">防災・警報</text><g transform="translate(573.0,780) scale(1.6)" style="color:#F87171"><rect x="10" y="10" width="20" height="20" fill="none" stroke="currentColor" stroke-width="2.2"/></g><text x="605.0" y="864" font-size="11" fill="#EDEBE4" text-anchor="middle" font-family="sans-serif">差動式スポット</text><text x="605.0" y="876" font-size="8" fill="#9AA0AA" text-anchor="middle" font-family="sans-serif">防災・警報</text><g transform="translate(23.0,890) scale(1.6)" style="color:#F87171"><rect x="10" y="10" width="20" height="20" fill="none" stroke="currentColor" stroke-width="2.2"/><circle cx="20" cy="20" r="3.2" fill="currentColor"/></g><text x="55.0" y="974" font-size="11" fill="#EDEBE4" text-anchor="middle" font-family="sans-serif">定温式スポット</text><text x="55.0" y="986" font-size="8" fill="#9AA0AA" text-anchor="middle" font-family="sans-serif">防災・警報</text><g transform="translate(133.0,890) scale(1.6)" style="color:#F87171"><circle cx="20" cy="20" r="9.5" fill="currentColor"/><text x="20" y="24.5" font-size="11" text-anchor="middle" fill="#12151a" font-family="sans-serif" font-weight="700">P</text></g><text x="165.0" y="974" font-size="11" fill="#EDEBE4" text-anchor="middle" font-family="sans-serif">P型発信機</text><text x="165.0" y="986" font-size="8" fill="#9AA0AA" text-anchor="middle" font-family="sans-serif">防災・警報</text><g transform="translate(243.0,890) scale(1.6)" style="color:#F87171"><path d="M10 22 A10 10 0 0 1 30 22 Z" fill="none" stroke="currentColor" stroke-width="2.2"/><line x1="10" y1="22" x2="30" y2="22" stroke="currentColor" stroke-width="2.2"/></g><text x="275.0" y="974" font-size="11" fill="#EDEBE4" text-anchor="middle" font-family="sans-serif">警報ベル(B)</text><text x="275.0" y="986" font-size="8" fill="#9AA0AA" text-anchor="middle" font-family="sans-serif">防災・警報</text><g transform="translate(353.0,890) scale(1.6)" style="color:#F87171"><circle cx="20" cy="20" r="9" fill="none" stroke="currentColor" stroke-width="2.2"/><circle cx="20" cy="20" r="3.2" fill="currentColor"/></g><text x="385.0" y="974" font-size="11" fill="#EDEBE4" text-anchor="middle" font-family="sans-serif">表示灯</text><text x="385.0" y="986" font-size="8" fill="#9AA0AA" text-anchor="middle" font-family="sans-serif">防災・警報</text><g transform="translate(463.0,890) scale(1.6)" style="color:#F87171"><rect x="7" y="12" width="26" height="16" fill="none" stroke="currentColor" stroke-width="2.2"/><path d="M7 12 L20 20 L33 12" fill="none" stroke="currentColor" stroke-width="1.6"/></g><text x="495.0" y="974" font-size="11" fill="#EDEBE4" text-anchor="middle" font-family="sans-serif">受信機</text><text x="495.0" y="986" font-size="8" fill="#9AA0AA" text-anchor="middle" font-family="sans-serif">防災・警報</text><g transform="translate(573.0,890) scale(1.6)" style="color:#F87171"><rect x="8" y="12" width="24" height="16" fill="none" stroke="currentColor" stroke-width="2.2"/></g><text x="605.0" y="974" font-size="11" fill="#EDEBE4" text-anchor="middle" font-family="sans-serif">機器収容箱</text><text x="605.0" y="986" font-size="8" fill="#9AA0AA" text-anchor="middle" font-family="sans-serif">防災・警報</text><g transform="translate(23.0,1000) scale(1.6)" style="color:#F87171"><circle cx="20" cy="20" r="9" fill="none" stroke="currentColor" stroke-width="2.2"/><text x="20" y="24.5" font-size="11" text-anchor="middle" fill="currentColor" font-family="sans-serif" font-weight="700">Ω</text></g><text x="55.0" y="1084" font-size="11" fill="#EDEBE4" text-anchor="middle" font-family="sans-serif">終端抵抗(Ω)</text><text x="55.0" y="1096" font-size="8" fill="#9AA0AA" text-anchor="middle" font-family="sans-serif">防災・警報</text><g transform="translate(133.0,1000) scale(1.6)" style="color:#9AA0AA"><rect x="11" y="11" width="18" height="18" fill="none" stroke="currentColor" stroke-width="2.4"/></g><text x="165.0" y="1084" font-size="11" fill="#EDEBE4" text-anchor="middle" font-family="sans-serif">ジョイントBOX</text><text x="165.0" y="1096" font-size="8" fill="#9AA0AA" text-anchor="middle" font-family="sans-serif">配線・接続</text><g transform="translate(243.0,1000) scale(1.6)" style="color:#9AA0AA"><rect x="9" y="9" width="22" height="22" fill="none" stroke="currentColor" stroke-width="2.2"/><path d="M9 9 L31 31 M31 9 L9 31" stroke="currentColor" stroke-width="1.8"/></g><text x="275.0" y="1084" font-size="11" fill="#EDEBE4" text-anchor="middle" font-family="sans-serif">プルボックス</text><text x="275.0" y="1096" font-size="8" fill="#9AA0AA" text-anchor="middle" font-family="sans-serif">配線・接続</text><g transform="translate(353.0,1000) scale(1.6)" style="color:#9AA0AA"><circle cx="20" cy="20" r="10" fill="none" stroke="currentColor" stroke-width="2.2"/><path d="M12 24 L20 14 M15 27 L24 15 M19 28 L28 17" stroke="currentColor" stroke-width="1.5"/></g><text x="385.0" y="1084" font-size="11" fill="#EDEBE4" text-anchor="middle" font-family="sans-serif">ケーブル用JB</text><text x="385.0" y="1096" font-size="8" fill="#9AA0AA" text-anchor="middle" font-family="sans-serif">配線・接続</text><g transform="translate(463.0,1000) scale(1.6)" style="color:#9AA0AA"><rect x="11" y="11" width="18" height="18" fill="none" stroke="currentColor" stroke-width="2.4"/><circle cx="20" cy="20" r="2.4" fill="currentColor"/></g><text x="495.0" y="1084" font-size="11" fill="#EDEBE4" text-anchor="middle" font-family="sans-serif">アウトレットBOX</text><text x="495.0" y="1096" font-size="8" fill="#9AA0AA" text-anchor="middle" font-family="sans-serif">配線・接続</text><g transform="translate(573.0,1000) scale(1.6)" style="color:#9AA0AA"><circle cx="20" cy="25" r="3.5" fill="currentColor"/><path d="M20 23 L20 10 M20 10 l-3 4 M20 10 l3 4" stroke="currentColor" stroke-width="2" fill="none"/></g><text x="605.0" y="1084" font-size="11" fill="#EDEBE4" text-anchor="middle" font-family="sans-serif">立上り</text><text x="605.0" y="1096" font-size="8" fill="#9AA0AA" text-anchor="middle" font-family="sans-serif">配線・接続</text></svg>